<svg width="24" height="24" viewBox="0 0 24 24" fill="none" xmlns="http://www.w3.org/2000/svg">
<path d="M21.8143 9.80943H14.1838V2.18528C14.1838 0.978459 13.2101 0 12.0033 0C10.7965 0 9.8233 0.978459 9.8233 2.18581V9.81472H2.1891C0.982283 9.81472 0.00118123 10.7932 0.00170984 12.0005C0.00118123 12.6037 0.244871 13.1566 0.639743 13.5515C1.03514 13.9474 1.58067 14.1974 2.18329 14.1974H9.8233V21.8158C9.8233 22.4195 10.0628 22.966 10.4582 23.3604C10.8536 23.7558 11.3975 24.0005 12.0012 24.0005C13.2075 24.0005 14.1838 23.0221 14.1838 21.8158V14.1969H21.8143C23.0211 14.1969 23.9996 13.21 23.9991 12.0032C23.9985 10.7969 23.0201 9.80943 21.8143 9.80943Z" fill="#1A1A1A"/>
</svg>
