<svg width="48" height="48" viewBox="0 0 48 48" fill="none" xmlns="http://www.w3.org/2000/svg">
<g clip-path="url(#clip0_3_138)">
<path d="M2.37829 30.1017C3.59079 31.1368 5.10888 31.6987 6.6467 31.6987L8.20422 31.6987L13.8133 31.6987L17.0072 31.6987L17.0072 39.1807C17.0072 42.3254 17.924 44.5926 19.7378 45.9234C22.6064 48.033 26.5594 46.8304 26.727 46.7712C27.2198 46.6135 27.555 46.16 27.555 45.6474L27.555 37.2782C27.555 34.5476 28.8562 32.231 31.4291 30.3876C33.3514 29.0075 35.3131 28.4062 35.5201 28.3372L35.806 28.2682C36.2298 28.9878 37.0086 29.4708 37.9057 29.4708L45.5651 29.4708C46.9058 29.4708 48 28.3766 48 27.036L48 4.52085C48 3.1802 46.9058 2.08598 45.5651 2.08598L37.8859 2.08598C37.1368 2.08598 36.4566 2.431 36.013 2.96332C34.7807 1.65224 33.0359 0.834048 31.1432 0.834048L24.647 0.834047L23.9766 0.834047L10.6588 0.834046C6.1341 0.834046 3.24577 3.19991 2.73317 7.34017L0.0814268 23.7928C-0.283308 26.1586 0.594034 28.5836 2.37829 30.1017ZM37.8268 4.52085C37.8268 4.48142 37.8564 4.45185 37.8958 4.45185L45.5651 4.45185C45.6046 4.45185 45.6341 4.48142 45.6341 4.52085L45.6341 27.036C45.6341 27.0754 45.6046 27.105 45.5651 27.105L37.8859 27.105C37.8465 27.105 37.8169 27.0754 37.8169 27.036L37.8169 4.52085L37.8268 4.52085ZM2.43743 24.1674L5.07931 7.68519C5.07931 7.67533 5.07931 7.65562 5.08917 7.6359C5.45391 4.68843 7.32688 3.19005 10.6687 3.19005L23.9865 3.19005L24.6568 3.19005L31.1531 3.19005C33.2528 3.19005 35.0765 4.75744 35.4018 6.82757C35.4116 6.89657 35.4314 6.96558 35.4511 7.03458L35.4511 25.9221L34.9385 26.0403C34.9188 26.0403 34.9089 26.0502 34.8892 26.0502C34.7906 26.0798 32.4543 26.7402 30.0983 28.4161C26.8748 30.7031 25.1793 33.7688 25.1793 37.2782L25.1793 44.7011C24.1541 44.8687 22.3994 44.9574 21.1277 44.011C19.9645 43.1534 19.3731 41.5269 19.3731 39.1807L19.3731 30.5256C19.3731 29.875 18.8407 29.3427 18.1901 29.3427L13.8133 29.3427L8.20422 29.3427L6.6467 29.3427C5.67078 29.3427 4.69486 28.978 3.9161 28.3076C2.75288 27.312 2.18113 25.7249 2.43743 24.1674Z" fill="#FF7000"/>
</g>
<defs>
<clipPath id="clip0_3_138">
<rect width="48" height="48" fill="white" transform="translate(48 48) rotate(-180)"/>
</clipPath>
</defs>
</svg>
