<svg width="24" height="24" viewBox="0 0 24 24" fill="none" xmlns="http://www.w3.org/2000/svg">
<path d="M23.5971 10.9252L19.9598 7.28791V3.0862C19.9598 2.32647 19.3442 1.71077 18.5833 1.71077C17.8242 1.71077 17.2086 2.32647 17.2086 3.0862V4.53672L14.5003 1.82835C13.1613 0.49008 10.8333 0.492454 9.49731 1.83077L0.402658 10.9252C-0.134219 11.4632 -0.134219 12.3336 0.402658 12.8707C0.939778 13.4085 1.8119 13.4085 2.34883 12.8707L11.4426 3.77602C11.7389 3.48132 12.261 3.48132 12.5557 3.77515L21.651 12.8707C21.9207 13.1396 22.2723 13.2734 22.6239 13.2734C22.9761 13.2734 23.3283 13.1395 23.5972 12.8707C24.1343 12.3336 24.1343 11.4632 23.5971 10.9252Z" fill="#FF7000"/>
<path d="M12.4778 6.38691C12.2136 6.12283 11.7857 6.12283 11.5223 6.38691L3.52261 14.3842C3.39631 14.5105 3.32471 14.6828 3.32471 14.8627V20.6957C3.32471 22.0644 4.43451 23.1741 5.8032 23.1741H9.76384V17.0404H14.2354V23.1741H18.196C19.5647 23.1741 20.6745 22.0644 20.6745 20.6957V14.8627C20.6745 14.6828 20.6035 14.5105 20.4766 14.3842L12.4778 6.38691Z" fill="#FF7000"/>
</svg>
