<svg width="48" height="48" viewBox="0 0 48 48" fill="none" xmlns="http://www.w3.org/2000/svg">
<g clip-path="url(#clip0_3_135)">
<path d="M45.6217 17.8983C44.4092 16.8632 42.8911 16.3013 41.3533 16.3013H39.7958H34.1867H30.9928V8.81926C30.9928 5.67463 30.076 3.40735 28.2622 2.07655C25.3936 -0.0330112 21.4406 1.16964 21.273 1.22878C20.7802 1.38651 20.445 1.83996 20.445 2.35257V10.7218C20.445 13.4524 19.1438 15.769 16.5709 17.6124C14.6486 18.9925 12.6869 19.5938 12.4799 19.6628L12.194 19.7318C11.7702 19.0122 10.9914 18.5292 10.0943 18.5292H2.43487C1.09421 18.5292 0 19.6234 0 20.964V43.4791C0 44.8198 1.09421 45.914 2.43487 45.914H10.1141C10.8633 45.914 11.5434 45.569 11.987 45.0367C13.2193 46.3478 14.9641 47.166 16.8568 47.166H23.353H24.0234H37.3412C41.8659 47.166 44.7542 44.8001 45.2668 40.6598L47.9186 24.2072C48.2833 21.8414 47.406 19.4164 45.6217 17.8983ZM10.1732 43.4791C10.1732 43.5186 10.1436 43.5482 10.1042 43.5482H2.43487C2.39544 43.5482 2.36586 43.5186 2.36586 43.4791V20.964C2.36586 20.9246 2.39544 20.895 2.43487 20.895H10.1141C10.1535 20.895 10.1831 20.9246 10.1831 20.964V43.4791H10.1732ZM45.5626 23.8326L42.9207 40.3148C42.9207 40.3247 42.9207 40.3444 42.9108 40.3641C42.5461 43.3116 40.6731 44.8099 37.3313 44.8099H24.0135H23.3432H16.8469C14.7472 44.8099 12.9235 43.2426 12.5982 41.1724C12.5884 41.1034 12.5686 41.0344 12.5489 40.9654V22.0779L13.0615 21.9597C13.0812 21.9597 13.0911 21.9498 13.1108 21.9498C13.2094 21.9202 15.5457 21.2598 17.9017 19.5839C21.1252 17.2969 22.8207 14.2312 22.8207 10.7218V3.29891C23.8459 3.13133 25.6006 3.04261 26.8723 3.98896C28.0355 4.84658 28.6269 6.47311 28.6269 8.81926V17.4744C28.6269 18.125 29.1593 18.6573 29.8099 18.6573H34.1867H39.7958H41.3533C42.3292 18.6573 43.3051 19.022 44.0839 19.6924C45.2471 20.688 45.8189 22.2751 45.5626 23.8326Z" fill="#FF7000"/>
</g>
<defs>
<clipPath id="clip0_3_135">
<rect width="48" height="48" fill="white"/>
</clipPath>
</defs>
</svg>
