<svg width="221" height="55" viewBox="0 0 221 55" fill="none" xmlns="http://www.w3.org/2000/svg">
<path d="M34.3213 44H26.8084L23.8219 36.2305H10.1494L7.32622 44H0L13.3225 9.7954H20.6254L34.3213 44ZM21.6054 30.4675L16.8923 17.7749L12.2726 30.4675H21.6054ZM44.2373 44H37.6811V19.2215H43.7707V22.7446C44.8129 21.0803 45.7461 19.9837 46.5705 19.4548C47.4105 18.926 48.3593 18.6615 49.417 18.6615C50.9103 18.6615 52.3491 19.0737 53.7334 19.8981L51.7035 25.6144C50.5992 24.8989 49.5726 24.5412 48.6237 24.5412C47.706 24.5412 46.9283 24.7978 46.2905 25.3111C45.6528 25.8089 45.1473 26.7188 44.774 28.041C44.4162 29.3631 44.2373 32.1318 44.2373 36.3471V44ZM67.9426 19.2215V24.4478H63.4628V34.4339C63.4628 36.456 63.5017 37.6382 63.5795 37.9804C63.6728 38.307 63.8673 38.5792 64.1628 38.797C64.4739 39.0147 64.8472 39.1236 65.2827 39.1236C65.8894 39.1236 66.7682 38.9136 67.9192 38.4937L68.4792 43.58C66.9548 44.2333 65.2283 44.56 63.2995 44.56C62.1174 44.56 61.0519 44.3655 60.103 43.9767C59.1542 43.5722 58.4542 43.0589 58.0032 42.4368C57.5676 41.799 57.2643 40.9435 57.0932 39.8702C56.9532 39.1081 56.8832 37.5682 56.8832 35.2505V24.4478H53.8734V19.2215H56.8832V14.2985L63.4628 10.472V19.2215H67.9426ZM88.8013 44V40.2902C87.8991 41.6124 86.7092 42.6545 85.2315 43.4167C83.7694 44.1789 82.2217 44.56 80.5885 44.56C78.9241 44.56 77.4309 44.1944 76.1087 43.4634C74.7866 42.7323 73.83 41.7057 73.2389 40.3836C72.6478 39.0614 72.3523 37.2337 72.3523 34.9005V19.2215H78.9086V30.6075C78.9086 34.0917 79.0252 36.2305 79.2586 37.0238C79.5074 37.8015 79.9507 38.4237 80.5885 38.8903C81.2262 39.3414 82.0351 39.5669 83.015 39.5669C84.1349 39.5669 85.1382 39.2636 86.0248 38.657C86.9114 38.0348 87.5181 37.2726 87.8447 36.3705C88.1713 35.4527 88.3347 33.2207 88.3347 29.6742V19.2215H94.8909V44H88.8013ZM107.98 44H101.424V19.2215H107.514V22.7446C108.556 21.0803 109.489 19.9837 110.313 19.4548C111.153 18.926 112.102 18.6615 113.16 18.6615C114.653 18.6615 116.092 19.0737 117.476 19.8981L115.446 25.6144C114.342 24.8989 113.315 24.5412 112.367 24.5412C111.449 24.5412 110.671 24.7978 110.033 25.3111C109.396 25.8089 108.89 26.7188 108.517 28.041C108.159 29.3631 107.98 32.1318 107.98 36.3471V44Z" fill="#E9E9E9"/>
<path d="M215.027 1.1946H131.406C128.107 1.1946 125.433 3.86879 125.433 7.16757V43.0054C125.433 46.3042 128.107 48.9784 131.406 48.9784H215.027C218.326 48.9784 221 46.3042 221 43.0054V7.16757C221 3.86879 218.326 1.1946 215.027 1.1946Z" fill="#FF7000"/>
<path d="M134.468 39.1946V9.26557H140.511V21.0453H152.352V9.26557H158.394V39.1946H152.352V26.1083H140.511V39.1946H134.468ZM178.892 39.1946V35.9485C178.102 37.1054 177.061 38.0173 175.768 38.6842C174.489 39.3511 173.134 39.6846 171.705 39.6846C170.249 39.6846 168.942 39.3647 167.786 38.725C166.629 38.0854 165.792 37.1871 165.274 36.0302C164.757 34.8733 164.499 33.2741 164.499 31.2326V17.5134H170.235V27.4761C170.235 30.5248 170.338 32.3963 170.542 33.0904C170.759 33.7709 171.147 34.3153 171.705 34.7236C172.263 35.1183 172.971 35.3157 173.829 35.3157C174.808 35.3157 175.686 35.0503 176.462 34.5195C177.238 33.975 177.769 33.3081 178.055 32.5187C178.34 31.7157 178.483 29.7627 178.483 26.6595V17.5134H184.22V39.1946H178.892ZM189.936 39.1946V9.26557H195.673V20.0449C197.442 18.0306 199.538 17.0234 201.961 17.0234C204.601 17.0234 206.786 17.983 208.514 19.902C210.243 21.8075 211.107 24.5499 211.107 28.1294C211.107 31.8314 210.222 34.6828 208.453 36.6835C206.697 38.6842 204.561 39.6846 202.043 39.6846C200.804 39.6846 199.579 39.3783 198.368 38.7659C197.17 38.1398 196.136 37.2211 195.265 36.0098V39.1946H189.936ZM195.632 27.8844C195.632 30.1301 195.986 31.7906 196.694 32.8658C197.687 34.3902 199.008 35.1523 200.654 35.1523C201.92 35.1523 202.995 34.6147 203.88 33.5395C204.778 32.4507 205.227 30.7426 205.227 28.4152C205.227 25.9382 204.778 24.1552 203.88 23.0664C202.982 21.964 201.832 21.4128 200.43 21.4128C199.055 21.4128 197.912 21.9504 197 23.0256C196.088 24.0872 195.632 25.7068 195.632 27.8844Z" fill="#0F1117"/>
</svg>
