<svg width="25" height="25" viewBox="0 0 25 25" fill="none" xmlns="http://www.w3.org/2000/svg">
<path d="M11.7187 23.4377H1.56252V1.56273H11.7187C12.15 1.56273 12.5 1.2127 12.5 0.781498C12.5 0.350297 12.1499 0.000270844 11.7187 0.000270844H0.781228C0.350026 0.000270844 0 0.350232 0 0.781498V24.2189C0 24.6502 0.350026 25.0001 0.781228 25.0001H11.7187C12.1499 25.0001 12.4999 24.6501 12.4999 24.2189C12.5 23.7876 12.1499 23.4377 11.7187 23.4377Z" fill="#FF7000"/>
<path d="M24.7733 11.9547L19.3827 6.48672C19.0772 6.17813 18.5827 6.17891 18.278 6.48672C17.9725 6.79454 17.9725 7.29451 18.278 7.60233L22.3405 11.7234H6.2523C5.82103 11.7234 5.47107 12.0766 5.47107 12.5125C5.47107 12.9484 5.8211 13.3016 6.2523 13.3016H22.3405L18.278 17.4227C17.9725 17.7313 17.9725 18.2305 18.278 18.5383C18.5835 18.8469 19.078 18.8469 19.3827 18.5383L24.7725 13.0703C25.0741 12.7664 25.0772 12.2578 24.7733 11.9547Z" fill="#FF7000"/>
</svg>
