<svg width="32" height="36" viewBox="0 0 32 36" fill="none" xmlns="http://www.w3.org/2000/svg">
<path d="M30.6865 22.6154L26.7728 17.0066V15.492V14.6585V7.13034C26.7728 6.64133 26.5818 6.1815 26.2362 5.83649L20.9356 0.535357C20.5899 0.189769 20.1296 0 19.6422 0H3.68991C1.97143 0 0.573975 1.39804 0.573975 3.11594V31.2136C0.573975 32.9314 1.9715 34.3296 3.68991 34.3296H15.3713H18.2834C18.4229 34.5158 18.5705 34.6962 18.7404 34.8579C19.4761 35.5613 20.467 36 21.5635 36C23.5386 36 21.4721 36 24.0832 36C25.1785 36 26.1718 35.5614 26.9076 34.8579C27.765 34.0396 28.1796 32.9642 28.1796 31.9035V28.9661C29.3687 28.7155 30.3878 27.9493 30.9594 26.8535C31.6679 25.4959 31.5638 23.8717 30.6865 22.6154ZM10.4725 30.4211H4.41034V3.90845H17.2924V7.33661C17.2924 8.55786 18.2858 9.55173 19.5075 9.55173H22.9363V14.4189H22.9176V14.4218C21.6208 14.3913 20.3124 14.956 19.4761 16.142L14.9602 22.6153C14.0828 23.8717 13.9786 25.4958 14.6873 26.8535C15.2588 27.9493 16.2779 28.7155 17.4671 28.9661V30.421H16.7125H10.4725V30.4211ZM28.087 25.3542C27.9382 25.6376 27.6478 25.814 27.329 25.814H27.3279H24.9393V31.9036C24.9393 32.3756 24.5551 32.7588 24.0844 32.7588H24.0831H21.5635H21.5622C21.0912 32.7588 20.7071 32.3756 20.7071 31.9036V25.814H18.3185H18.3174C17.9987 25.814 17.7082 25.6376 17.5595 25.3542C17.4119 25.0707 17.433 24.7316 17.6169 24.4691L22.1209 18.0117C22.2814 17.7827 22.5439 17.6462 22.8226 17.6462H22.8239C23.1027 17.6462 23.365 17.7827 23.5255 18.0117L28.0297 24.4691C28.2134 24.7316 28.2346 25.0707 28.087 25.3542Z" fill="#E9E9E9"/>
</svg>
