<svg width="43" height="31" viewBox="0 0 43 31" fill="none" xmlns="http://www.w3.org/2000/svg">
<path d="M21.5 0.71875C34.9375 0.71875 43 15.5 43 15.5C43 15.5 34.9375 30.2812 21.5 30.2812C8.0625 30.2812 0 15.5 0 15.5C0 15.5 8.0625 0.71875 21.5 0.71875ZM21.5 3.40625C12.04 3.40625 5.36963 12.1433 3.15781 15.5C5.36694 18.854 12.0373 27.5938 21.5 27.5938C30.96 27.5938 37.6304 18.8567 39.8422 15.5C37.6331 12.146 30.9627 3.40625 21.5 3.40625ZM21.5 6.09375C23.9947 6.09375 26.3872 7.08476 28.1512 8.84878C29.9152 10.6128 30.9062 13.0053 30.9062 15.5C30.9062 17.9947 29.9152 20.3872 28.1512 22.1512C26.3872 23.9152 23.9947 24.9062 21.5 24.9062C19.0053 24.9062 16.6128 23.9152 14.8488 22.1512C13.0848 20.3872 12.0938 17.9947 12.0938 15.5C12.0938 13.0053 13.0848 10.6128 14.8488 8.84878C16.6128 7.08476 19.0053 6.09375 21.5 6.09375ZM21.5 8.78125C19.7187 8.78338 18.011 9.49193 16.7515 10.7515C15.4919 12.011 14.7834 13.7187 14.7812 15.5C14.7812 19.2034 17.7939 22.2188 21.5 22.2188C25.2061 22.2188 28.2188 19.2034 28.2188 15.5C28.2188 11.7966 25.2061 8.78125 21.5 8.78125Z" fill="#FF7000"/>
</svg>
