<svg width="20" height="20" viewBox="0 0 20 20" fill="none" xmlns="http://www.w3.org/2000/svg">
<path d="M15.3909 1.48196L9.99534 6.87754L4.60425 1.48644C3.7509 0.633094 2.37051 0.62973 1.51716 1.48308C0.663814 2.33643 0.667552 3.71644 1.52128 4.57017L6.91573 9.96462L1.51754 15.3628C0.664188 16.2162 0.66232 17.6018 1.51642 18.4551C1.94253 18.882 2.50582 19.1007 3.06426 19.1007C3.62381 19.101 4.18636 18.8921 4.61247 18.466L10.0148 13.0637L15.4018 18.4507C15.8286 18.8775 16.3844 19.0947 16.9429 19.0939C17.5021 19.0939 18.0597 18.8824 18.4866 18.4555C19.3396 17.6025 19.3381 16.2203 18.4851 15.3673L13.0978 9.97995L18.4933 4.58437C19.3467 3.73102 19.3407 2.34129 18.487 1.48831C17.6336 0.635712 16.2435 0.629358 15.3909 1.48196Z" fill="#FF3B30"/>
</svg>
